<?xml version="1.0" encoding="utf-8"?>
<!-- Generator: Adobe Illustrator 17.1.0, SVG Export Plug-In . SVG Version: 6.00 Build 0)  -->
<!DOCTYPE svg PUBLIC "-//W3C//DTD SVG 1.1//EN" "http://www.w3.org/Graphics/SVG/1.1/DTD/svg11.dtd">
<svg version="1.1" id="Layer_1" xmlns="http://www.w3.org/2000/svg" xmlns:xlink="http://www.w3.org/1999/xlink" x="0px" y="0px"
	 viewBox="0 0 30 30" enable-background="new 0 0 30 30" xml:space="preserve">
<path fill="#686868" d="M15,0C6.7,0,0,6.7,0,15c0,8.3,6.7,15,15,15s15-6.7,15-15C30,6.7,23.3,0,15,0z M23.6,21.6l-2.6,0
	c0,0-0.6,0.1-1.3-0.4c-1-0.7-1.9-2.4-2.6-2.2c-0.7,0.2-0.7,1.8-0.7,1.8s0,0.3-0.2,0.5c-0.2,0.2-0.5,0.2-0.5,0.2h-1.2
	c0,0-2.6,0.2-4.9-2.2c-2.5-2.6-4.7-7.8-4.7-7.8s-0.1-0.3,0-0.5c0.2-0.2,0.6-0.2,0.6-0.2l2.8,0c0,0,0.3,0,0.5,0.2
	C8.9,11.2,9,11.4,9,11.4s0.5,1.2,1.1,2.2c1.2,2,1.7,2.5,2.1,2.3c0.6-0.3,0.4-2.9,0.4-2.9s0-0.9-0.3-1.3c-0.2-0.3-0.7-0.4-0.9-0.4
	c-0.2,0,0.1-0.4,0.4-0.6c0.5-0.2,1.4-0.3,2.5-0.3c0.8,0,1.1,0.1,1.4,0.1c1,0.2,0.6,1.1,0.6,3.3c0,0.7-0.1,1.7,0.4,2
	c0.2,0.1,0.7,0,2.1-2.2c0.6-1.1,1.1-2.3,1.1-2.3s0.1-0.2,0.3-0.3c0.2-0.1,0.4-0.1,0.4-0.1l3,0c0,0,0.9-0.1,1,0.3
	c0.2,0.4-0.3,1.4-1.5,3c-2,2.6-2.2,2.4-0.6,3.9c1.6,1.5,1.9,2.2,2,2.3C25,21.5,23.6,21.6,23.6,21.6z"/>
</svg>
