<svg xmlns="http://www.w3.org/2000/svg" viewBox="0 0 42.6 43" enable-background="new 0 0 42.6 43"><path fill="#21EA7B" d="M21.3 0c-11.8 0-21.3 9.6-21.3 21.5s9.5 21.5 21.3 21.5 21.3-9.6 21.3-21.5-9.6-21.5-21.3-21.5zm12.2 30.9l-3.8.1s-.8.2-1.9-.6c-1.4-1-2.7-3.5-3.7-3.2-1 .3-1 2.6-1 2.6s0 .5-.2.7c-.3.3-.8.3-.8.3h-1.7s-3.7.2-6.9-3.2c-3.5-3.6-6.6-11-6.6-11s-.2-.5 0-.7c.2-.3.8-.3.8-.3h4s.4.1.6.3c.2.2.3.5.3.5s.6 1.6 1.5 3.1c1.7 2.9 2.4 3.5 3 3.2.8-.5.6-4.1.6-4.1s0-1.3-.4-1.9c-.3-.5-1-.6-1.2-.6-.2 0 .1-.6.6-.8.7-.4 2-.4 3.5-.4 1.2 0 1.5.1 2 .2 1.4.3.9 1.6.9 4.7 0 1-.2 2.4.5 2.9.3.2 1.1 0 2.9-3.2.9-1.5 1.6-3.3 1.6-3.3s.1-.3.4-.5c.2-.1.5-.1.5-.1h4.2s1.3-.2 1.5.4c.2.6-.5 2-2.2 4.3-2.8 3.8-3.1 3.4-.8 5.6 2.2 2.1 2.7 3.1 2.8 3.2.9 1.7-1 1.8-1 1.8z"/></svg>