<svg xmlns="http://www.w3.org/2000/svg" viewBox="318.9 0 322.1 560" enable-background="new 318.9 0 322.1 560"><path d="M479.6 560c-84.2 0-160.7-46-160.7-138.8s76.4-138.8 160.7-138.8c85 0 161.4 45.2 161.4 138.8s-76.4 138.8-161.4 138.8zm0-182.5c-53 0-78 13.3-78 43.7 0 30.4 25 43.7 78 43.7s78-13.3 78-43.7c0-30.4-25-43.7-78-43.7zm156-122.5h-73.3c-100.6-142.7-112.3-155.9-135.7-155.9-14.8 0-24.2 15.6-24.2 35.9 0 33.5 12.5 58.5 32 82.7l-62.4 51.4c-38.2-36.7-53-88.9-53-132.6 0-81.1 45.2-133.4 107.6-133.4 42.9 0 78 24.2 127.1 99.1v-102.2h82.7v255h-.8z" fill="#D8D8D8"/></svg>