<svg xmlns="http://www.w3.org/2000/svg" viewBox="320.9 0 320.9 560" enable-background="new 320.9 0 320.9 560"><path d="M481.2 560c-84 0-160.2-45.1-160.2-138.4 0-92.6 76.2-138.4 160.2-138.4 84.8 0 161 45.1 161 138.4s-76.3 138.4-161 138.4zm0-181.2c-52.9 0-77.8 13.2-77.8 43.6s24.9 43.6 77.8 43.6 77.8-13.2 77.8-43.6-24.9-43.6-77.8-43.6zm112.7-108.9l-64.5-45.9c21-24.1 29.6-60.7 29.6-84.8 0-31.1-10.1-45.1-21-45.1s-17.1 6.2-17.1 48.2c0 13.2.8 40.4.8 45.1h-82.4c.8-6.2.8-34.2.8-45.1 0-29.6-5.4-42.8-15.6-42.8-14.8 0-20.2 19.4-20.2 45.9s9.3 54.4 27.2 76.2l-59.2 44.4c-30.3-28-51.3-70.8-51.3-131.4 0-85.6 35-129.1 86.3-129.1 33.4 0 62.2 28.8 69.2 68.4 3.9-35 29.6-73.9 72.3-73.9 55.2 0 93.3 54.4 93.3 135.3.1 61.5-20.2 108.1-48.2 134.6z" fill="#D8D8D8"/></svg>