<svg xmlns="http://www.w3.org/2000/svg" viewBox="321.8 0 316.4 560" enable-background="new 321.8 0 316.4 560"><path d="M479.6 560c-82.7 0-157.8-44.4-157.8-136.4s75.1-136.4 157.8-136.4 158.6 44.4 158.6 136.4-75.1 136.4-158.6 136.4zm0-179.3c-52.1 0-76.6 13-76.6 42.9s24.5 42.9 76.6 42.9 76.6-13 76.6-42.9-24.5-42.9-76.6-42.9zm115.7-115.6l-65.1-49.8c17.6-21.5 26.8-51.3 26.8-77.4 0-30.6-12.3-42.9-25.3-42.9-13.8 0-25.3 12.3-25.3 40.6 0 23.7 6.1 41.4 21.5 56.7l-14.6 63.6h-186.9v-234.4h81.2v141.7h42.9c-14.6-14.6-23.7-38.3-23.7-63.6 0-52.9 39-99.6 100.3-99.6 67.4 0 111.1 50.6 111.1 136.4 0 55.1-16.1 98.8-42.9 128.7z" fill="#D8D8D8"/></svg>