<svg xmlns="http://www.w3.org/2000/svg" viewBox="322.5 0 315.1 560" enable-background="new 322.5 0 315.1 560"><path d="M479.6 560c-82.4 0-157.2-44.3-157.2-135.8 0-90.8 74.8-135.8 157.2-135.8 83.2 0 157.9 44.3 157.9 135.8s-74.7 135.8-157.9 135.8zm0-178.5c-51.9 0-76.3 13-76.3 42.7 0 29.8 24.4 42.7 76.3 42.7s76.3-13 76.3-42.7c0-29.8-24.4-42.7-76.3-42.7zm.8-109.1c-102.2 0-157.9-65.6-157.9-160.2 0-35.1 9.9-71 26.7-95.4l71.7 38.9c-12.2 17.5-16.8 33.6-16.8 56.5 0 30.5 16 67.1 53.4 67.1h.8c-19.8-15.3-31.3-42.7-31.3-71 0-54.9 35.8-108.3 100.7-108.3 66.4 0 109.9 54.2 109.9 126.6-.1 100.8-68 145.8-157.2 145.8zm51.1-178.6c-19.8 0-26.7 24.4-26.7 42.7 0 15.3 3.1 30.5 12.2 42.7 20.6-1.5 38.9-14.5 38.9-46.5.8-23.6-11.4-38.9-24.4-38.9z" fill="#D8D8D8"/></svg>