<svg xmlns="http://www.w3.org/2000/svg" viewBox="0 0 60 60" enable-background="new 0 0 60 60"><path fill="#21EA7B" d="M60 7c0-2.8-2.2-5-5-5h-50c-2.8 0-5 2.2-5 5v36c0 2.8 2.2 5 5 5h50c2.8 0 5-2.2 5-5v-36zm-2 36c0 1.7-1.3 3-3 3h-50c-1.7 0-3-1.3-3-3v-36c0-1.7 1.3-3 3-3h50c1.7 0 3 1.3 3 3v36zm-2-36c0-.6-.4-1-1-1h-50c-.6 0-1 .4-1 1v32c0 .6.4 1 1 1h50c.6 0 1-.4 1-1v-32zm-2 31h-48v-30h48v30zm-11.6 18h-6.4v-4.9c0-.6-.4-1-1-1s-1 .4-1 1v4.9h-8v-4.9c0-.6-.4-1-1-1s-1 .4-1 1v4.9h-7.6c-.6 0-1 .4-1 1s.4 1 1 1h26c.6 0 1-.4 1-1s-.5-1-1-1zm-13-14c-.6 0-1 .5-1 1.1s.5 1 1 1c.6 0 1-.5 1-1s-.4-1.1-1-1.1zm-6.9-10.4c.2.4.5.6.9.6.1 0 .3 0 .4-.1.5-.2.7-.8.4-1.3l-3.8-7.6 3.8-7.6c.2-.5 0-1.1-.4-1.3-.5-.2-1.1 0-1.3.4l-4 8c-.1.3-.1.6 0 .9l4 8zm14.4.4c.1.1.3.1.4.1.4 0 .7-.2.9-.6l4-8c.1-.3.1-.6 0-.9l-4-8c-.2-.5-.8-.7-1.3-.4-.5.2-.7.8-.4 1.3l3.8 7.6-3.8 7.6c-.3.5-.1 1.1.4 1.3zm-10-2c.1.1.3.1.4.1.4 0 .7-.2.9-.6l6-12c.2-.5 0-1.1-.4-1.3-.5-.2-1.1 0-1.3.4l-6 12c-.3.6-.1 1.2.4 1.4z"/></svg>