<svg xmlns="http://www.w3.org/2000/svg" viewBox="0 0 60 60" enable-background="new 0 0 60 60"><path fill="#21EA7B" d="M58.4 2h-27.4v-.9c0-.6-.4-1-1-1s-1 .4-1 1v.9h-28.6c-.6 0-.4.6-.4 1.1v4c0 .6-.2.9.4.9h52c.6 0 1-.4 1-1s-.4-1-1-1h-50.4v-2h56v2h-1.6c-.6 0-.4.6-.4 1.1v34c0 1.7-2 2.9-3.6 2.9h-46c-1.7 0-2.4-1.2-2.4-2.9v-30c0-.6-.4-1-1-1s-1 .4-1 1v30c0 2.8 1.6 4.9 4.4 4.9h46c2.8 0 5.6-2.1 5.6-4.9v-33.1h.4c.5 0 1.6-.3 1.6-.9v-4c0-.5-1.1-1.1-1.6-1.1zm-28.4 46.1c-.6 0-1 .4-1 1v2.6l-7 6.7c-.4.4-.5 1-.2 1.4.2.2.4.3.6.3s.5-.1.7-.3l7.3-7c.2-.2.6-.4.6-.7v-3c0-.5-.4-1-1-1zm3.1 6.3c-.4-.4-1-.4-1.4 0s-.4 1 0 1.4l4 4c.2.2.5.3.7.3s.5-.1.7-.3c.4-.4.4-1 0-1.4l-4-4zm-21.4-18.6c.2.2.5.3.7.3s.5-.1.7-.3l7.3-7.3c.6.4 1.3.6 2 .6s1.4-.2 2-.6l5.3 5.3c.2.2.5.3.7.3s.5-.1.7-.3l10.3-10.3c.6.4 1.3.6 2 .6 2.2 0 4-1.8 4-4s-1.8-4-4-4-4 1.8-4 4c0 .7.2 1.4.6 2l-9.6 9.6-4.6-4.6c.4-.6.6-1.3.6-2 0-2.2-1.8-4-4-4s-4 1.8-4 4c0 .7.2 1.4.6 2l-7.3 7.3c-.4.4-.4 1 0 1.4zm31.7-17.7c1.1 0 2 .9 2 2s-.9 2-2 2c-.5 0-1-.2-1.4-.6-.4-.4-.6-.9-.6-1.4 0-1.1.9-2 2-2zm-21 5c1.1 0 2 .9 2 2s-.9 2-2 2-2-.9-2-2 .9-2 2-2z"/></svg>