<svg xmlns="http://www.w3.org/2000/svg" viewBox="0 0 60 60" enable-background="new 0 0 60 60"><path fill="#21EA7B" d="M34.4 29.1c.1 0 .6 0 .8-.1 4.3-2.1 14.8-8.4 14.8-19.9v-3c1 0 2-.9 2-2v-2c0-1.1-1.5-2.1-2.6-2.1h-40c-1.1 0-1.4 1-1.4 2.1v2c0 1.1 1 2 2 2v3c0 12.9 12.9 20 19.7 22 6.3 1.8 18.3 8.3 18.3 20v4c0 .6-.2.9.4.9h1.6v2h-40v-2h34.4c.6 0 1-.4 1-1s-.4-1-1-1h-32.4v-2.9c0-10.3 9.1-16.1 13.1-18.1.5-.2.5-.8.3-1.3s-.6-.7-1.1-.5c-4.4 2.2-14.3 8.4-14.3 19.9v3c-1 0-2 .9-2 2v2c0 1.1.3 1.9 1.4 1.9h40c1.1 0 2.6-.8 2.6-1.9v-2c0-1.1-1-2-2-2v-3c0-12.9-12.9-20-19.7-22-6.3-1.8-18.3-8.3-18.3-20v-4c0-.5-1.1-1.1-1.6-1.1h-.4v-2h40v2h-35.6c-.6 0-1 .4-1 1s.4 1 1 1h33.6v3.1c0 10.4-9.7 16.1-13.7 18.1-.5.2-.9.8-.6 1.3.1.4.3.6.7.6zm-20.3 17c-.5.1-.9.7-.7 1.2.1.5.7.9 1.2.7.1 0 7.8-1.9 14.5 0 2.4.7 5 .9 7.3.9 4.4 0 8-.9 8.2-.9.5-.1.9-.7.7-1.2-.1-.5-.7-.9-1.2-.7-.1 0-7.8 1.9-14.5 0-7.1-2-15.1 0-15.5 0zm15.3-11c.6 0 1-.5 1-1.1s-.4-1-1-1-1 .5-1 1.1.5 1 1 1zm0 4c.6 0 1-.5 1-1.1s-.4-1-1-1-1 .5-1 1.1.5 1 1 1zm0 4c.6 0 1-.5 1-1.1s-.4-1-1-1-1 .5-1 1.1.5 1 1 1zm1.6-19c.6 0 1-.4 1-1v-.1c2-.4 2.7-2 2.7-3.9 0-2.2-2-4-4.2-4-1.1 0-2.1-.9-2.1-2s.9-2 2-2 2 .9 2 2c0 .6.4 1 1 1s1.3-.4 1.3-1c0-1.9-.7-3.4-2.7-3.9v-.1c0-.6-.4-1-1-1s-1 .4-1 1v.1c-2 .4-3.3 2-3.3 3.9 0 2.2 1.6 4 3.8 4 1.1 0 1.9.9 1.9 2s-.9 2-2 2-2-.9-2-2c0-.6-.5-1-1-1s-.7.4-.7 1c0 1.9 1.3 3.4 3.3 3.9v.1c0 .6.4 1 1 1z"/></svg>