<svg xmlns="http://www.w3.org/2000/svg" viewBox="0 0 60 60" enable-background="new 0 0 60 60"><path fill="#21EA7B" d="M5.6 32.3c.4.3.9.2 1.2-.3.3-.5.5-1.1 0-1.4-2.6-1.7-3.8-4.5-3.8-7.5v-12c0-5 4-9 9-9s9 4 9 9v12c0 3-1.9 5.9-4.5 7.5-.5.3-.8.9-.5 1.4.2.3.4.5.7.5.2 0 .7-.1.9-.2 3.1-2 5.3-5.5 5.3-9.2v-12c0-6.1-4.9-11-11-11s-10.9 4.9-10.9 11v12c0 3.7 1.5 7.1 4.6 9.2zm10.5-7.1c-.2.5-.2 1.1.3 1.3.1.1.2.1.3.1.4 0 1.1-.2 1.3-.6.4-.9 1-1.9 1-2.9v-12c0-3.9-3.1-7-7-7s-7 3.1-7 7v12c0 1-.2 2 .2 2.9.2.5.6.7 1.1.5.5-.2 1-.8.8-1.3-.2-.7-.1-1.4-.1-2.1v-12c0-2.8 2.2-5 5-5s5 2.2 5 5v12c0 .7-.5 1.4-.9 2.1zm40.8-11.9c-2.1-2.1-4.8-3.2-7.8-3.2-2.9 0-5.7 1.1-7.8 3.2l-8.5 8.5c-2.5 2.5-3.6 5.9-3.1 9.3.1.5.6.9 1.1.8.5-.1.9-.6.8-1.1-.4-2.8.5-5.6 2.5-7.7l8.5-8.5c1.7-1.7 4-2.6 6.4-2.6 2.4 0 4.7.9 6.4 2.6 1.7 1.7 2.6 4 2.6 6.4 0 2.4-.9 4.7-2.6 6.4l-8.4 8.5c-2.1 2.1-5.1 3-8.1 2.5-.5-.1-1.1.3-1.2.8-.1.5.3 1.1.8 1.2.7.1 1.4.2 2.1.2 2.9 0 5.7-1.1 7.8-3.2l8.5-8.5c2.1-2.1 3.2-4.8 3.2-7.8 0-2.9-1.1-5.7-3.2-7.8zm-12.7 19.8c-.4.4-.9.7-1.4 1-.5.2-.7.8-.5 1.3.2.4.5.6.9.6.1 0 .3 0 .4-.1.7-.3 1.3-.8 1.9-1.4l8.5-8.5c1.3-1.3 2-3.1 2-5s-.7-3.6-2-4.9c-1.3-1.3-3.1-2.1-4.9-2.1-1.9 0-3.6.7-4.9 2.1l-8.5 8.5c-.6.6-1 1.2-1.4 1.9-.2.5 0 1.1.5 1.3.5.2 1.1 0 1.3-.5.2-.5.6-1 1-1.4l8.5-8.5c.9-.9 2.2-1.5 3.5-1.5 1.3 0 2.6.5 3.5 1.5.9.9 1.5 2.2 1.5 3.5 0 1.3-.5 2.6-1.5 3.5l-8.4 8.7zm-28.5 5.9c0 .6.4 1 1 1h6.5c.6 0 1-.4 1-1s-.4-1-1-1h-6.5c-.5 0-1 .4-1 1zm16.7 6.2c-.5.2-.8.7-.7 1.3.3.9.4 1.7.4 2.6 0 5-4 9-9 9h-12c-5 0-9-4-9-9 0-3 1.5-5.8 4.1-7.5.5-.3.6-.9.3-1.4-.3-.5-.9-.6-1.4-.3-3.1 2-5 5.4-5 9.2 0 6.1 4.9 11 11 11h12c6.1 0 11-4.9 11-11 0-1.1-.2-2.2-.5-3.2-.1-.6-.6-.9-1.2-.7zm-12.7-1.2c.6 0 1-.4 1-1s-.4-1-1-1h-3c-.6 0-1 .4-1 1s.4 1 1 1h3zm-13.5 1.6c-.5-.2-1.1 0-1.3.5-.4.9-.7 1.9-.7 2.9 0 3.9 3.1 7 7 7h12c3.9 0 7-3.1 7-7 0-.6-.4-1-1-1s-1 .4-1 1c0 2.8-2.2 5-5 5h-12c-2.8 0-5-2.2-5-5 0-.7.2-1.4.5-2.1.2-.5 0-1-.5-1.3zm1.8-22.5v26c0 1.7 1.8 3 3.5 3s3.5-1.3 3.5-3v-26c0-1.7-1.8-3-3.5-3s-3.5 1.3-3.5 3zm5 0v26c0 .6-.4 1-1 1s-1-.4-1-1v-26c0-.6.4-1 1-1s1 .4 1 1zm6.8 24.4c0 .8.3 1.6.9 2.1.6.6 1.3.9 2.1.9s1.6-.3 2.1-.9l18.3-18.4c.6-.6.9-1.3.9-2.1s-.3-1.6-.9-2.1c-1.1-1.1-3.1-1.1-4.2 0l-18.3 18.4c-.6.5-.9 1.3-.9 2.1zm2.3-.7l18.3-18.4c.2-.2.4-.3.7-.3.3 0 .5.1.7.3.2.2.3.4.3.7 0 .3-.1.5-.3.7l-18.3 18.4c-.4.4-1 .4-1.4 0-.2-.2-.3-.4-.3-.7 0-.3.1-.5.3-.7z"/></svg>