<svg xmlns="http://www.w3.org/2000/svg" viewBox="0 0 60 60" enable-background="new 0 0 60 60"><path fill="#21EA7B" d="M32.6 58h-26c-1.7 0-2.6-1.2-2.6-2.9v-50c0-1.7.9-3.1 2.6-3.1h31.6l9.7 9.8c.4.4 1 .4 1.4 0s.4-1 0-1.4l-10-10c-.2-.3-.5-.4-.7-.4h-32c-2.8 0-4.6 2.3-4.6 5.1v50c0 2.8 1.8 4.9 4.6 4.9h26c.6 0 1-.4 1-1s-.5-1-1-1zm7.4-46.9v-5c0-.6-.4-1-1-1s-1 .4-1 1v5c0 2.8 1.8 4.9 4.6 4.9h9.4v19.1c0 .6.4 1 1 1s1-.4 1-1v-20c0-.6-.9-1.1-1.4-1.1h-10c-1.7 0-2.6-1.2-2.6-2.9zm-15.4 8.9h10c.6 0 1-.4 1-1s-.4-1-1-1h-10c-.6 0-1 .4-1 1s.4 1 1 1zm7 5c0-.6-.4-1-1-1h-6c-.6 0-1 .4-1 1s.4 1 1 1h6c.5 0 1-.4 1-1zm11-1h-8c-.6 0-1 .4-1 1s.4 1 1 1h8c.6 0 1-.4 1-1s-.5-1-1-1zm-18 6c-.6 0-1 .4-1 1s.4 1 1 1h2c.6 0 1-.4 1-1s-.4-1-1-1h-2zm12 12c-.6 0-1 .4-1 1s.4 1 1 1h2c.6 0 1-.4 1-1s-.4-1-1-1h-2zm-6-10h10c.6 0 1-.4 1-1s-.4-1-1-1h-10c-.6 0-1 .4-1 1s.4 1 1 1zm2 4h-8c-.6 0-1 .4-1 1s.4 1 1 1h8c.6 0 1-.4 1-1s-.5-1-1-1zm0 6h-8c-.6 0-1 .4-1 1s.4 1 1 1h8c.6 0 1-.4 1-1s-.5-1-1-1zm11-5c0-.6-.4-1-1-1h-6c-.6 0-1 .4-1 1s.4 1 1 1h6c.5 0 1-.4 1-1zm-11 11h-8c-.6 0-1 .4-1 1s.4 1 1 1h8c.6 0 1-.4 1-1s-.5-1-1-1zm23.8-6.7l-2-2c-1.5-1.5-3.9-1.5-5.4 0l-12.9 13.1c-.2.2-.1.4-.1.7v6c0 .6 0 .9.6.9h6c.3 0 .5-.1.7-.2l13.1-13.1c1.6-1.6 1.6-3.8 0-5.4zm-8.7 2.1l1.6 1.6-8.7 8.7-1.6-1.6 8.7-8.7zm-9.7 14.6v-4.5l4.1 4.5h-4.1zm5.6-1.3l-1.6-1.6 8.7-8.7 1.6 1.6-8.7 8.7zm11.4-11.4l-1.3 1.3-4.6-4.6 1.3-1.3c.8-.8 1.8-.8 2.6 0l2 2c.8.8.8 1.8 0 2.6zm-35-26.3c0-.6-.4-1-1-1h-6c-.6 0-1 .4-1 1v6c0 .6.4 1 1 1h6c.6 0 1-.4 1-1v-6zm-2 5h-4v-4h4v4zm2 19c0-.6-.4-1-1-1h-6c-.6 0-1 .4-1 1v6c0 .6.4 1 1 1h6c.6 0 1-.4 1-1v-6zm-6 1h4v4h-4v-4zm-.1-6.2c.2.2.4.3.7.3h.1c.3 0 .6-.2.7-.4l4-6c.3-.5.2-1.1-.3-1.4-.5-.3-1.1-.2-1.4.3l-3.3 5-1.1-1.1c-.4-.4-1-.4-1.4 0s-.4 1 0 1.4l2 1.9z"/></svg>