<svg xmlns="http://www.w3.org/2000/svg" viewBox="0 0 60 60" enable-background="new 0 0 60 60"><path fill="#21EA7B" d="M32.3 36.4s-.8.7-2.3.7c-1.5 0-2.3-.7-2.3-.7-.4-.4-1-.4-1.4 0-.4.4-.4 1 0 1.4.1.1 1.4 1.3 3.7 1.3s3.6-1.2 3.7-1.3c.4-.4.4-1 0-1.4-.4-.4-1-.4-1.4 0zm3.7-6.4c2 0 3.7-1.5 3.9-3.4l3.7-2.7c.4-.3.5-.9.2-1.4-.3-.4-1-.5-1.4-.2l-2.5 1.9c-.4-1.3-1.6-2.2-2.9-2.2h-4c-1.7 0-3 1.3-3 3 0-1.7-1.3-3-3-3h-4c-1.3 0-2.5.9-2.9 2.2l-2.5-1.9c-.4-.3-1.1-.2-1.4.2-.3.4-.2 1.1.2 1.4l3.7 2.7c.2 1.9 1.9 3.4 3.9 3.4h2c2.2 0 4-1.8 4-4 0 2.2 1.8 4 4 4h2zm-8-3.9c0 1.1-.9 1.9-2 1.9h-2c-1.1 0-2-.8-2-1.9v-1c0-.6.4-1.1 1-1.1h4c.6 0 1 .5 1 1.1v1zm4 0v-1c0-.6.4-1.1 1-1.1h4c.6 0 1 .5 1 1.1v1c0 1.1-.9 1.9-2 1.9h-2c-1.1 0-2-.8-2-1.9zm-21.2 24c-8.4 2.1-10.6 8.4-10.7 8.7-.2.5.1 1.1.6 1.3l.3.1c.4 0 .8-.3.9-.7 0-.1 1.9-5.5 9.3-7.3.5-.1.9-.7.7-1.2-.1-.7-.6-1-1.1-.9zm49.1 8.7c-.1-.3-2.3-6.5-10.7-8.7-.5-.1-1.1.2-1.2.7-.1.5.2 1.1.7 1.2 7.3 1.8 9.2 7.1 9.3 7.3.1.4.5.7.9.7.1 0 .2 0 .3-.1.6 0 .9-.6.7-1.1zm-14-8.1v-.1c0-.1-.1-.1-.1-.1s-.1-.1-.2-.1l-4-2c-.3-.2-.7-.1-1 .1l-6 4c-.3.2-.4.5-.4.8v3.5c-1 .5-2.1 1.5-4 1.5s-3-1-4-1.5v-3.5c0-.3-.2-.6-.4-.8l-6-4c-.3-.2-.7-.2-1-.1l-4 2-.2.1c-.1 0-.1.1-.1.1v.1l-.1.2v.4c0 .1 0 .1.1.2v.1l.1.2c0 .1.1.1.1.1l6 4c.2.1.4.2.6.2.3 0 .6-.2.8-.4.3-.5.2-1.1-.3-1.4l-4.6-3 1.9-1 5.1 3.4v3.5c0 .3.1.5.3.7.1.1 2.3 2.3 5.7 2.3s5.6-2.2 5.7-2.3c.2-.2.3-.4.3-.7v-3.5l5.1-3.4 1.9 1-4.6 3c-.5.3-.6.9-.3 1.4.2.3.5.4.8.4.2 0 .4-.1.6-.2l6-4c.1 0 .1-.1.1-.1l.1-.1v-.1c0-.1 0-.1.1-.2v-.4c-.1-.2-.1-.3-.1-.3zm4.2-3.2c.2.4.5.6.9.6.1 0 .2 0 .4-.1.5-.2.8-.8.6-1.3 0 0-1.9-4.9-1.9-9.6v-8c0-8.5-4.4-10.8-4.6-10.9-.3-.2-.7-.1-1 0-.3.2-.5.5-.5.9v4c0 3.8-2.9 11.6-3.9 13.6-.9 1.8-5.6 7.4-10.1 7.4s-9.2-5.7-10.1-7.4c-1-2-3.9-9.8-3.9-13.6v-4c0-.3-.2-.7-.5-.9-.3-.2-.7-.2-1 0-.2.1-4.6 2.4-4.6 10.9v8c0 4.7-1.9 9.6-1.9 9.6-.2.5 0 1.1.6 1.3.5.2 1.1 0 1.3-.6.1-.1 2.1-5.2 2.1-10.3v-8c0-4.1 1-6.4 2-7.7v1.7c0 4.3 3.1 12.5 4.1 14.4 1.2 2.4 6.5 8.6 11.9 8.6s10.7-6.1 11.9-8.6c1-1.9 4.1-10.2 4.1-14.4v-1.7c1 1.3 2 3.7 2 7.7v8c0 5.1 2 10.2 2.1 10.4zm-4.1-32.4v-7c0-.6-.4-1-1-1s-1 .4-1 1v6.4c-2 .7-6.9 2.6-14 2.6s-12-1.9-14-2.6v-6.4c0-.6-.4-1-1-1s-1 .4-1 1v7c0 .4.2.7.6.9.3.1 6.3 3.1 15.4 3.1s15.2-3 15.4-3.1c.4-.2.6-.5.6-.9zm-39.1-10l23 3h.2l21.9-2.9v3.5c-1 .7-2 2.5-2 4.4 0 2.2 1.8 3 3 3s3-.8 3-3c0-1.9-1-3.7-2-4.4v-4.6c0-.1 0-.3-.1-.4 0 0 0-.1-.1-.1l-.1-.2-.1-.1-.2-.1h-.3l-23-3h-.3l-23 3c-.4 0-.8.4-.8.9s.4.9.9 1zm47.1 8c0 .8-.5 1-1 1s-1-.2-1-1 .5-1.8 1-2.4c.5.6 1 1.6 1 2.4zm-24-11l15.3 2-15.3 2-15.3-2 15.3-2z"/></svg>