<svg xmlns="http://www.w3.org/2000/svg" viewBox="457.6 0 44 560" enable-background="new 457.6 0 44 560"><path d="M501.6 534.8l-15.2 9.7 3.2 2.4h12v13.1h-43.2v-13.1h16.2l-16.2-11.4v-16l20.1 16.3 23.1-17.1v16.1zm-21.6-16c-13.3 0-22.4-10.3-22.4-23.7s9.1-23.7 22.4-23.7c13.3 0 22.4 10.3 22.4 23.7s-9.1 23.7-22.4 23.7zm0-34c-6.1 0-10.8 4.1-10.8 10.4s4.8 10.4 10.8 10.4c6.1 0 10.8-4.1 10.8-10.4 0-6.3-4.7-10.4-10.8-10.4zm21.6-18h-43.2v-23.1c0-10.2 6.7-15.6 14.8-15.6 8 0 14.8 5.4 14.8 15.6v9.9h13.6v13.2zm-28.4-25.3c-2.4 0-3.5 1.7-3.5 4v8.3h6.8v-8.4c0-2.2-1-3.9-3.3-3.9zm6.8-15.2c-13.3 0-22.4-10.4-22.4-23.7 0-13.3 9.1-23.7 22.4-23.7 13.3 0 22.4 10.3 22.4 23.7s-9.1 23.7-22.4 23.7zm0-34.1c-6.1 0-10.8 4.1-10.8 10.4 0 6.3 4.8 10.4 10.8 10.4 6.1 0 10.8-4.1 10.8-10.4 0-6.4-4.7-10.4-10.8-10.4zm21.6-27.2h-31.9v11.6h-11.4v-36.2h11.5v11.6h31.9v13h-.1zm0-54.6l-15.2 9.7 3.2 2.4h12v13.1h-43.2v-13.1h16.2l-16.2-11.4v-16l20.1 16.3 23.1-17.1v16.1zm-21.6-16c-13.3 0-22.4-10.3-22.4-23.7 0-13.4 9.1-23.7 22.4-23.7 13.3 0 22.4 10.3 22.4 23.7 0 13.4-9.1 23.7-22.4 23.7zm0-34.1c-6.1 0-10.8 4.1-10.8 10.4s4.8 10.4 10.8 10.4c6.1 0 10.8-4.1 10.8-10.4 0-6.3-4.7-10.4-10.8-10.4zm0-32.1c-13.3 0-22.4-10.4-22.4-23.7s9.1-23.7 22.4-23.7c13.3 0 22.4 10.3 22.4 23.7s-9.1 23.7-22.4 23.7zm0-34c-6.1 0-10.8 4.1-10.8 10.4 0 6.3 4.8 10.4 10.8 10.4 6.1 0 10.8-4.1 10.8-10.4 0-6.3-4.7-10.4-10.8-10.4zm0-32.3c-13.4 0-22.4-10.3-22.4-23.8 0-11.4 6.6-17.1 12.5-19.7l5.3 11.2c-3.4 1.1-6.3 4.4-6.3 8.3 0 6.3 4.8 10.5 10.8 10.5 6.1 0 10.8-4.2 10.8-10.5 0-3.9-2.9-7.2-6.3-8.3l5.2-11.2c5.7 2.5 12.6 8.3 12.6 19.7.2 13.6-8.9 23.8-22.2 23.8zm21.6-47.5h-43.2v-32.8h11.5v19.7h4.3v-19.2h11.5v19.2h4.8v-19.7h11.5v32.8h-.4zm-43.2-74.7h11.5v23h3.5v-10.6c0-9.7 6.4-14.9 14.2-14.9s14.3 5.2 14.3 14.9v23.8h-43.2v-36.2h-.3zm26.2 23h5.6v-9c0-1.8-.9-3.2-2.8-3.2-1.8 0-2.8 1.4-2.8 3.2v9zm17-29.8h-43.2v-32.9h11.5v19.7h4.3v-19.3h11.5v19.2h4.8v-19.6h11.5v32.9h-.4z" fill="#D8D8D8"/></svg>