<svg xmlns="http://www.w3.org/2000/svg" viewBox="0 0 40.7 495" enable-background="new 0 0 40.7 495"><path d="M40.7 471.7l-14.1 9 3 2.2h11.1v12.1h-40v-12.1h15l-15-10.5v-14.8l18.6 15.1 21.4-15.8v14.8zm0-43.7l-4.7 1.4v14.4l4.7 1.4v13.7l-40-14.8v-15.2l40-14.8v13.9zm-28.2 8.7l12.9 4v-7.9l-12.9 3.9zm28.2-47.9l-14.1 9 3 2.2h11.1v12.1h-40v-12.1h15l-15-10.5v-14.8l18.6 15.1 21.4-15.8v14.8zm-20-30.1c-12.4 0-20.7-9.5-20.7-22 0-10.5 6.1-15.8 11.6-18.2l4.9 10.4c-3.1 1-5.8 4.1-5.8 7.7 0 5.8 4.4 9.7 10 9.7s10-3.9 10-9.7c0-3.6-2.7-6.7-5.8-7.7l4.8-10.4c5.3 2.3 11.7 7.7 11.7 18.2 0 12.6-8.4 22-20.7 22zm20-43.9h-40v-24.3c0-8.3 5.5-11.9 10.2-11.9 5 0 8.3 2.9 9.2 6.8.7-4.3 4.6-7.6 9.8-7.6 5.6 0 10.9 3.8 10.9 11.8v25.2zm-27.7-23.9c-1.4 0-2.3 1.1-2.3 2.4v9.4h4.7v-9.4c0-1.3-.9-2.4-2.4-2.4zm15.1-.8c-1.4 0-2.6 1.1-2.6 2.8v9.7h5.1v-9.7c0-1.7-1-2.8-2.5-2.8zm12.6-15.5l-14.2-7.3c-1.6 3.2-5.2 7.2-12.1 7.2-7.5 0-13.7-5-13.7-14.4v-21.4h40v12.1h-12.6v4.4l12.6 5.5v13.9zm-23.2-23.7h-6.3v7.4c0 2 1 4 3.1 4 2.2 0 3.2-1.9 3.2-4v-7.4zm17.7-16.1l-8.3-5.9c2.7-3.1 3.8-8.4 3.8-11.5 0-4.3-1.3-6.4-2.7-6.4-1.4 0-2.2 1.1-2.2 6.8v8.2h-10.5v-8.2c0-3.8-.7-6.1-2-6.1-1.9 0-2.6 2.8-2.6 6.5 0 3.4 1.2 7.6 3.5 10.4l-7.6 5.7c-3.9-3.5-6.6-9.6-6.6-17.4 0-11 4.5-17.3 11.1-17.3 4.3 0 8 3.7 8.9 8.8.5-4.4 3.8-9.5 9.4-9.5 7.1 0 12 7.6 12 18 0 7.9-2.6 14.5-6.2 17.9zm5.5-67.5l-4.7 1.4v14.4l4.7 1.4v13.7l-40-14.8v-15.2l40-14.8v13.9zm-28.2 8.7l12.9 4v-8l-12.9 4zm28.2-33.1h-29.5v10.7h-10.5v-33.5h10.6v10.7h29.5v12.1zm-40-39.3h12.6v-9.2c0-9.4 6.2-14.4 13.6-14.4 7.5 0 13.7 5 13.7 14.4v21.4h-40v-12.2zm23.1 0h6.3v-7.7c0-2-1-3.7-3.2-3.7-2.1 0-3.1 1.6-3.1 3.7v7.7zm-3.1-25.4c-12.4 0-20.7-9.5-20.7-22 0-10.5 6.1-15.8 11.6-18.2l4.9 10.4c-3.1 1-5.8 4.1-5.8 7.7 0 5.8 4.4 9.7 10 9.7s10-3.9 10-9.7c0-3.6-2.7-6.7-5.8-7.7l4.8-10.4c5.3 2.3 11.7 7.7 11.7 18.2 0 12.5-8.4 22-20.7 22zm20-42.4l-14.2-7.3c-1.6 3.2-5.2 7.2-12.1 7.2-7.5 0-13.7-5-13.7-14.4v-21.3h40v12.1h-12.6v4.4l12.6 5.5v13.8zm-23.2-23.7h-6.3v7.4c0 2 1 4 3.1 4 2.2 0 3.2-1.9 3.2-4v-7.4z" fill="#D8D8D8"/></svg>