<svg xmlns="http://www.w3.org/2000/svg" viewBox="0 0 41.4 516.4" enable-background="new 0 0 41.4 516.4"><path d="M20.7 516.4c-12.4 0-20.7-9.5-20.7-22 0-10.5 6.1-15.8 11.6-18.2l4.9 10.4c-3.1 1-5.8 4.1-5.8 7.7 0 5.8 4.4 9.7 10 9.7s10-3.9 10-9.7c0-3.6-2.7-6.7-5.8-7.7l4.8-10.4c5.3 2.3 11.7 7.7 11.7 18.2 0 12.5-8.4 22-20.7 22zm20-67.4l-14.1 9 3 2.2h11.1v12.1h-40v-12.1h15l-15-10.5v-14.8l18.6 15.1 21.4-15.8v14.8zm-20-14.7c-12.3 0-20.7-9.6-20.7-21.9s8.4-21.9 20.7-21.9c12.3 0 20.7 9.5 20.7 21.9s-8.4 21.9-20.7 21.9zm0-31.5c-5.6 0-10 3.8-10 9.6s4.4 9.6 10 9.6 10-3.8 10-9.6-4.4-9.6-10-9.6zm10-14.6c0-3.4-2.3-5.9-9.9-6.9l-20.2-2.5v-31.3h40v12.1h-29.4v8.2l10.5 1.3c15.8 1.9 19.7 9.7 19.7 19h-10.7zm-30-59.2h12.6v-9.2c0-9.4 6.2-14.4 13.7-14.4 7.5 0 13.7 5 13.7 14.4v21.4h-40v-12.2zm23.1 0h6.3v-7.7c0-2-1-3.7-3.2-3.7-2.1 0-3.1 1.6-3.1 3.7v7.7zm16.9-51l-14.1 9 3 2.2h11.1v12.1h-40v-12.1h15l-15-10.5v-14.8l18.6 15.1 21.4-15.8v14.8zm-20-14.7c-12.3 0-20.7-9.6-20.7-21.9 0-12.4 8.4-21.9 20.7-21.9 12.3 0 20.7 9.5 20.7 21.9 0 12.3-8.4 21.9-20.7 21.9zm0-31.5c-5.6 0-10 3.8-10 9.6s4.4 9.6 10 9.6 10-3.8 10-9.6-4.4-9.6-10-9.6zm0-29.8c-12.4 0-20.7-9.5-20.7-22 0-10.5 6.1-15.8 11.6-18.2l4.9 10.4c-3.1 1-5.8 4.1-5.8 7.7 0 5.8 4.4 9.7 10 9.7s10-3.9 10-9.7c0-3.6-2.7-6.7-5.8-7.7l4.8-10.4c5.3 2.3 11.7 7.7 11.7 18.2 0 12.5-8.4 22-20.7 22zm20-52.5h-29.5v10.7h-10.5v-33.5h10.6v10.7h29.5v12.1zm-20-25c-12.3 0-20.7-9.5-20.7-21.9s8.4-21.9 20.7-21.9c12.3 0 20.7 9.5 20.7 21.9s-8.4 21.9-20.7 21.9zm0-31.5c-5.6 0-10 3.8-10 9.6s4.4 9.6 10 9.6 10-3.8 10-9.6-4.4-9.6-10-9.6zm20-16.6h-40v-12.1h21.3l-21.3-14v-12.4h40v12.1h-22.7l22.7 14.8v11.6zm0-53.6h-29.5v10.7h-10.5v-33.5h10.6v10.7h29.5v12.1z" fill="#D8D8D8"/></svg>