<svg xmlns="http://www.w3.org/2000/svg" viewBox="0 0 40.7 397" enable-background="new 0 0 40.7 397"><path d="M40.7 370.6h-29.5v14.3h29.5v12.1h-40v-38.6h40v12.2zm0-18.6h-40v-21.4c0-9.4 6.2-14.4 13.7-14.4 7.4 0 13.7 5 13.7 14.4v9.2h12.6v12.2zm-26.3-23.5c-2.2 0-3.2 1.6-3.2 3.7v7.7h6.3v-7.7c0-2.1-1-3.7-3.1-3.7zm6.3-14.1c-12.3 0-20.7-9.5-20.7-21.9s8.4-21.9 20.7-21.9c12.3 0 20.7 9.5 20.7 21.9s-8.4 21.9-20.7 21.9zm0-31.5c-5.6 0-10 3.8-10 9.6s4.4 9.6 10 9.6 10-3.8 10-9.6-4.4-9.6-10-9.6zm20-16.6h-40v-30.4h10.6v18.2h29.5v12.2zm0-35.5h-40v-21.4c0-9.4 6.2-14.4 13.7-14.4 7.4 0 13.7 5 13.7 14.4v9.2h12.6v12.2zm-26.3-23.5c-2.2 0-3.2 1.6-3.2 3.7v7.7h6.3v-7.7c0-2.1-1-3.7-3.1-3.7zm26.3-43l-4.7 1.4v14.4l4.7 1.4v13.7l-40-14.8v-15.2l40-14.8v13.9zm-28.2 8.7l12.9 4v-8l-12.9 4zm28.2-60h-24.1l24.1 8.9v5.4l-24.1 8.9h24.1v12.1h-40v-16.7l19.2-7-19.2-7v-16.7h40v12.1zm0-54h-24.1l24.1 9v5.4l-24.1 8.9h24.1v12.1h-40v-16.7l19.2-7-19.2-7v-16.8h40v12.1zm0-45.3l-4.7 1.5v14.4l4.7 1.4v13.7l-40-14.7v-15.2l40-14.8v13.7zm-28.2 8.7l12.9 4v-7.9l-12.9 3.9z" fill="#D8D8D8"/></svg>