<svg xmlns="http://www.w3.org/2000/svg" viewBox="0 0 40 488.3" enable-background="new 0 0 40 488.3"><path d="M40 461.9h-29.4v14.3h29.4v12.1h-40v-38.6h40v12.2zm0-18.6h-40v-21.4c0-9.4 6.2-14.4 13.7-14.4 7.4 0 13.7 5 13.7 14.4v9.2h12.6v12.2zm-26.3-23.5c-2.2 0-3.2 1.6-3.2 3.7v7.7h6.3v-7.7c.1-2.1-1-3.7-3.1-3.7zm26.3-16.2h-40v-12.1h21.4l-21.4-14v-12.5h40v12.1h-22.7l22.7 14.8v11.7zm0-45h-40v-30.4h10.6v18.2h4v-17.8h10.6v17.8h4.4v-18.2h10.4v30.4zm0-71.2h-24l24.1 8.9v5.4l-24.1 9h24v12.1h-40v-16.7l19.2-7-19.2-7.1v-16.7h40v12.1zm0-60.4h-15.3v14.3h15.3v12.1h-40v-12.1h14.2v-14.3h-14.2v-12.1h40v12.1zm0-45.3l-4.7 1.4v14.4l4.7 1.5v13.7l-40-14.7v-15.2l40-14.8v13.7zm-28.1 8.7l12.9 4v-7.9l-12.9 3.9zm-11.9-57.9h10.6v21.2h3.2v-9.8c0-9 5.9-13.8 13.1-13.8 7.2 0 13.2 4.8 13.2 13.8v22h-40.1v-33.4zm24.3 21.2h5.2v-8.3c0-1.7-.8-3-2.6-3-1.7 0-2.6 1.3-2.6 3v8.3zm-4.3-25.4c-12.3 0-20.7-9.5-20.7-21.9s8.4-21.9 20.7-21.9c12.3 0 20.7 9.5 20.7 21.9s-8.4 21.9-20.7 21.9zm0-31.5c-5.6 0-10 3.8-10 9.6s4.4 9.6 10 9.6 10-3.8 10-9.6-4.4-9.6-10-9.6zm20-16.6h-40v-21.4c0-9.4 6.2-14.4 13.7-14.4 7.4 0 13.7 5 13.7 14.4v9.2h12.6v12.2zm-26.3-23.5c-2.2 0-3.2 1.6-3.2 3.7v7.6h6.3v-7.7c.1-2-1-3.6-3.1-3.6zm26.3-43l-4.7 1.4v14.4l4.7 1.5v13.7l-40-14.7v-15.2l40-14.8v13.7zm-28.1 8.7l12.9 4v-7.9l-12.9 3.9z" fill="#D8D8D8"/></svg>