<svg xmlns="http://www.w3.org/2000/svg" viewBox="0 0 41.4 531.1" enable-background="new 0 0 41.4 531.1"><path d="M13.3 518.8c3.9 0 4.9-2.3 4.9-5.5 0-2.3-.3-4.2-.9-5.8h-16.6v-12.1h40v12.1h-12.8c.6 3.1.9 5.1.9 7.6 0 11-6.2 16-15.5 16h-12.6v-12.3h12.6zm27.4-29.9h-40v-30.4h10.6v18.2h4v-17.8h10.6v17.8h4.4v-18.2h10.6v30.4zm0-71.2h-24.1l24.1 8.9v5.4l-24.1 9h24.1v12.1h-40v-16.7l19.2-7-19.2-7v-16.7h40v12zm-2.5-14.3l-9.2-4.9c.9-1.3 1.8-3.1 1.8-5.2s-.7-3.2-1.9-4l-28.2 14.1v-13.6l16.3-7.4-16.3-7.4v-13.6l32 16c5 2.5 8.8 7 8.8 14.8-.1 3.9-.9 8.1-3.3 11.2zm2.5-85.9h-15.3v14.3h15.3v12.2h-40v-12.1h14.2v-14.3h-14.2v-12.1h40v12zm0-45.3l-4.7 1.4v14.4l4.7 1.4v13.7l-40-14.8v-15.2l40-14.8v13.9zm-28.2 8.7l12.9 4v-7.9l-12.9 3.9zm25.7-20.3l-9.2-4.9c.9-1.3 1.8-3.1 1.8-5.2s-.7-3.2-1.9-4l-28.2 14.1v-13.6l16.3-7.4-16.3-7.4v-13.6l32 16c5 2.5 8.8 7 8.8 14.8-.1 3.9-.9 8.1-3.3 11.2zm-24.9-55.6c3.9 0 4.9-2.3 4.9-5.5 0-2.3-.3-4.2-.9-5.8h-16.6v-12.1h40v12.1h-12.8c.6 3.1.9 5.1.9 7.6 0 11-6.2 16-15.5 16h-12.6v-12.3h12.6zm27.4-30h-40v-12.1h21.3l-21.3-13.9v-12.5h40v12.1h-22.7l22.7 14.8v11.6zm0-80.4h-24.1l24.1 8.9v5.4l-24.1 8.9h24.1v12.2h-40v-16.7l19.2-7-19.2-7v-16.8h40v12.1zm-20-16.4c-12.4 0-20.7-9.5-20.7-22 0-10.5 6.1-15.8 11.6-18.2l4.9 10.4c-3.1 1-5.8 4.1-5.8 7.7 0 5.8 4.4 9.7 10 9.7s10-3.9 10-9.7c0-3.6-2.7-6.7-5.8-7.7l4.8-10.4c5.3 2.3 11.7 7.7 11.7 18.2 0 12.5-8.4 22-20.7 22zm20-42.4l-14.2-7.3c-1.6 3.2-5.2 7.2-12.1 7.2-7.5 0-13.7-5-13.7-14.4v-21.3h40v12.1h-12.6v4.4l12.6 5.5v13.8zm-23.2-23.7h-6.3v7.4c0 2 1 4 3.1 4 2.2 0 3.2-1.9 3.2-4v-7.4z" fill="#D8D8D8"/></svg>